#!OML:ASF F:\VICON\USERDATA\INSTALL\SteveWalk\SteveWalk.ASF
:FULLY-SPECIFIED
:DEGREES
152
root -0.103413 16.0148 -13.081 18.2996 -4.89069 -0.148776
lowerback -16.6537 2.11488 -1.30653
upperback -4.78433 2.99379 0.0505384
thorax 4.14693 1.47371 1.38382
lowerneck -4.60867 -0.948621 0.27181
upperneck 8.11486 -1.18754 -1.24564
head 3.41506 -0.629867 -0.506501
rclavicle 1.07949e-014 -1.98785e-016
rhumerus -21.3576 7.76997 -86.1861
rradius 55.8368
rwrist -14.9918
rhand -17.7118 -31.3977
rfingers 7.12502
rthumb 8.54842 -61.2046
lclavicle 1.07949e-014 -1.98785e-016
lhumerus -72.2491 31.436 38.6527
lradius 11.1266
lwrist -36.973
lhand -14.5572 -13.0528
lfingers 7.12502
lthumb 11.5918 16.6066
rfemur -0.22423 -3.28024 19.5209
rtibia 25.8583
rfoot -16.5239 16.0933
rtoes -19.84
lfemur -49.8029 3.62693 -23.2077
ltibia 22.215
lfoot -5.42999 -0.116982
ltoes -18.3012
153
root -0.0863793 16.0176 -12.8255 18.3596 -4.6322 0.0765173
lowerback -16.9449 1.98708 -1.58305
upperback -4.83117 2.88247 -0.0875326
thorax 4.24905 1.4164 1.38352
lowerneck -4.64652 -0.977022 0.0910605
upperneck 8.19293 -1.25012 -0.785092
head 3.45257 -0.648161 -0.32789
rclavicle -4.2397e-014 -3.77691e-015
rhumerus -22.266 7.61982 -86.3043
rradius 56.1709
rwrist -15.0592
rhand -17.7285 -31.9087
rfingers 7.12502
rthumb 8.53236 -61.7164
lclavicle -4.2397e-014 -3.77691e-015
lhumerus -72.7163 31.5107 37.6985
lradius 11.0774
lwrist -37.6857
lhand -14.7515 -13.1229
lfingers 7.12502
lthumb 11.4044 16.5469
rfemur 0.0174088 -2.92178 19.2113
rtibia 26.9351
rfoot -14.378 16.6204
rtoes -17.9953
lfemur -50.3239 2.60772 -22.7736
ltibia 24.0396
lfoot -4.03541 -0.748271
ltoes -15.4059
154
root -0.0732006 16.0025 -12.5704 18.4066 -4.3562 0.456346
lowerback -17.0832 1.85237 -2.09306
upperback -4.93471 2.80328 -0.283749
thorax 4.20013 1.37705 1.45137
lowerneck -4.91299 -1.06288 0.100945
upperneck 8.44553 -1.39395 -0.457514
head 3.59406 -0.705965 -0.232444
rclavicle 8.18473e-015 -6.95746e-016
rhumerus -23.3687 7.116 -86.424
rradius 56.5462
rwrist -14.9236
rhand -17.686 -31.9793
rfingers 7.12502
rthumb 8.57339 -61.7853
lclavicle 8.18473e-015 -6.95746e-016
lhumerus -74.6239 32.6582 33.4197
lradius 10.6019
lwrist -41.4685
lhand -14.9938 -13.7909
lfingers 7.12502
lthumb 11.1707 15.8917
rfemur 0.0723884 -2.71485 18.7812
rtibia 28.2647
rfoot -12.1657 17.1117
rtoes -14.055
lfemur -50.925 1.79251 -22.693
ltibia 25.9442
lfoot -3.0537 -1.57788
ltoes -12.5623
155
root -0.0663697 15.9831 -12.3272 18.4066 -4.00377 0.898533
lowerback -16.9748 1.68428 -2.74049
upperback -5.04535 2.69759 -0.489971
thorax 4.00798 1.32785 1.57096
lowerneck -5.36809 -1.18411 0.16981
upperneck 8.78849 -1.58852 -0.180579
head 3.80517 -0.78777 -0.168346
rclavicle -1.04399e-014 7.26806e-015
rhumerus -24.4136 6.41973 -86.5286
rradius 56.6805
rwrist -14.6431
rhand -17.613 -32.1227
rfingers 7.12502
rthumb 8.64383 -61.9258
lclavicle -1.04399e-014 7.26806e-015
lhumerus -75.5381 33.57 30.7181
lradius 9.96806
lwrist -43.917
lhand -15.4398 -14.2694
lfingers 7.12502
lthumb 10.7405 15.436
rfemur -0.373983 -2.79217 18.356
rtibia 30.2028
rfoot -8.83691 17.3004
rtoes -15.9478
lfemur -51.2526 1.28021 -22.9765
ltibia 27.7341
lfoot -2.12097 -2.50733
ltoes -12.8945
156
root -0.0407709 15.9583 -12.0902 18.3883 -3.04927 0.928185
lowerback -16.9543 1.45855 -2.51653
upperback -5.08889 2.37109 -0.641764
thorax 3.98179 1.16767 1.21905
lowerneck -5.44949 -1.30207 0.260314
upperneck 8.77251 -1.77559 0.0339652
head 3.81651 -0.867743 -0.123295
rclavicle -5.64517e-015 -1.2424e-015
rhumerus -25.5499 5.67549 -86.7054
rradius 56.779
rwrist -14.3221
rhand -17.6039 -32.2417
rfingers 7.12502
rthumb 8.65264 -62.0444
lclavicle -5.64517e-015 -1.2424e-015
lhumerus -76.9494 34.1355 27.7729
lradius 10.216
lwrist -46.396
lhand -15.3749 -12.2291
lfingers 7.12502
lthumb 10.8031 17.4731
rfemur -0.974096 -3.89077 18.3073
rtibia 32.6518
rfoot -5.5783 17.7793
rtoes -16.6426
lfemur -51.4003 0.681287 -23.0651
ltibia 29.4828
lfoot -1.7153 -3.33454
ltoes -13.631
157
root -0.0305649 15.9582 -11.8442 18.2989 -2.92988 1.4085
lowerback -17.0658 1.37117 -3.09755
upperback -5.11852 2.37011 -0.901111
thorax 3.99583 1.1659 1.27612
lowerneck -5.26131 -1.42999 0.275087
upperneck 8.6863 -1.9723 0.299693
head 3.75173 -0.953438 -0.0457247
rclavicle -2.39279e-014 0
rhumerus -27.0821 4.82315 -86.8374
rradius 57.2738
rwrist -14.0068
rhand -17.2511 -32.6913
rfingers 7.12502
rthumb 8.99307 -62.4796
lclavicle -2.39279e-014 0
lhumerus -76.3678 33.8678 28.4436
lradius 10.4343
lwrist -45.7022
lhand -15.672 -11.9539
lfingers 7.12502
lthumb 10.5165 17.763
rfemur -2.0363 -4.28092 17.6204
rtibia 35.4883
rfoot -1.55487 17.8439
rtoes -14.6718
lfemur -51.3566 0.508358 -23.7227
ltibia 31.1657
lfoot -2.19141 -3.42212
ltoes -14.7176
